HIERARCHY
ROOT hip
{
  OFFSET -283.37 83.1752 17.3915
  CHANNELS 6 Xposition Yposition Zposition Zrotation Xrotation Yrotation
  JOINT abdomen
  {
    OFFSET 0 20.6881 -0.73152
    CHANNELS 3 Zrotation Xrotation Yrotation
    JOINT chest
    {
      OFFSET 0 11.7043 -0.48768
      CHANNELS 3 Zrotation Xrotation Yrotation
      JOINT neck
      {
        OFFSET 0 22.1894 -2.19456
        CHANNELS 3 Zrotation Xrotation Yrotation
        JOINT head
        {
          OFFSET -0.24384 7.07133 1.2192
          CHANNELS 3 Zrotation Xrotation Yrotation
          JOINT leftEye
          {
            OFFSET 4.14528 8.04674 8.04672
            CHANNELS 3 Zrotation Xrotation Yrotation
            End Site
            {
              OFFSET 1 0 0
            }
          }
          JOINT rightEye
          {
            OFFSET -3.6576 8.04674 8.04672
            CHANNELS 3 Zrotation Xrotation Yrotation
            End Site
            {
              OFFSET 1 0 0
            }
          }
        }
      }
      JOINT rCollar
      {
        OFFSET -2.68224 19.2634 -4.8768
        CHANNELS 3 Zrotation Xrotation Yrotation
        JOINT rShldr
        {
          OFFSET -8.77824 -1.95073 1.46304
          CHANNELS 3 Zrotation Xrotation Yrotation
          JOINT rForeArm
          {
            OFFSET -28.1742 -1.7115 0.48768
            CHANNELS 3 Zrotation Xrotation Yrotation
            JOINT rHand
            {
              OFFSET -22.5879 0.773209 7.07136
              CHANNELS 3 Zrotation Xrotation Yrotation
              JOINT rThumb1
              {
                OFFSET -1.2192 -0.487915 3.41376
                CHANNELS 3 Zrotation Xrotation Yrotation
                JOINT rThumb2
                {
                  OFFSET -3.37035 -0.52449 3.41376
                  CHANNELS 3 Zrotation Xrotation Yrotation
                  End Site
                  {
                    OFFSET -1.78271 -1.18214 1.43049
                  }
                }
              }
              JOINT rIndex1
              {
                OFFSET -7.75947 0.938293 5.60832
                CHANNELS 3 Zrotation Xrotation Yrotation
                JOINT rIndex2
                {
                  OFFSET -2.54057 -0.884171 1.56538
                  CHANNELS 3 Zrotation Xrotation Yrotation
                  End Site
                  {
                    OFFSET -1.62519 -0.234802 1.16502
                  }
                }
              }
              JOINT rMid1
              {
                OFFSET -8.24714 1.18213 3.41376
                CHANNELS 3 Zrotation Xrotation Yrotation
                JOINT rMid2
                {
                  OFFSET -3.10165 -0.590103 1.0647
                  CHANNELS 3 Zrotation Xrotation Yrotation
                  End Site
                  {
                    OFFSET -2.48547 -0.328903 0.83742
                  }
                }
              }
              JOINT rRing1
              {
                OFFSET -8.82822 0.546677 1.51678
                CHANNELS 3 Zrotation Xrotation Yrotation
                JOINT rRing2
                {
                  OFFSET -2.60934 -0.819778 -0.0198488
                  CHANNELS 3 Zrotation Xrotation Yrotation
                  End Site
                  {
                    OFFSET -2.33842 -0.294052 0.168128
                  }
                }
              }
              JOINT rPinky1
              {
                OFFSET -8.27202 -0.0477905 -0.4584
                CHANNELS 3 Zrotation Xrotation Yrotation
                JOINT rPinky2
                {
                  OFFSET -1.82734 -0.647385 -0.700984
                  CHANNELS 3 Zrotation Xrotation Yrotation
                  End Site
                  {
                    OFFSET -1.69225 -0.51767 -0.607171
                  }
                }
              }
            }
          }
        }
      }
      JOINT lCollar
      {
        OFFSET 2.68224 19.2634 -4.8768
        CHANNELS 3 Zrotation Xrotation Yrotation
        JOINT lShldr
        {
          OFFSET 8.77824 -1.95073 1.46304
          CHANNELS 3 Zrotation Xrotation Yrotation
          JOINT lForeArm
          {
            OFFSET 28.1742 -1.7115 0.48768
            CHANNELS 3 Zrotation Xrotation Yrotation
            JOINT lHand
            {
              OFFSET 22.5879 0.773209 7.07136
              CHANNELS 3 Zrotation Xrotation Yrotation
              JOINT lThumb1
              {
                OFFSET 1.2192 -0.487915 3.41376
                CHANNELS 3 Zrotation Xrotation Yrotation
                JOINT lThumb2
                {
                  OFFSET 3.37035 -0.52449 3.41376
                  CHANNELS 3 Zrotation Xrotation Yrotation
                  End Site
                  {
                    OFFSET 1.78271 -1.18214 1.43049
                  }
                }
              }
              JOINT lIndex1
              {
                OFFSET 7.75947 0.938293 5.60832
                CHANNELS 3 Zrotation Xrotation Yrotation
                JOINT lIndex2
                {
                  OFFSET 2.54057 -0.884171 1.56538
                  CHANNELS 3 Zrotation Xrotation Yrotation
                  End Site
                  {
                    OFFSET 1.62519 -0.234802 1.16502
                  }
                }
              }
              JOINT lMid1
              {
                OFFSET 8.24714 1.18213 3.41376
                CHANNELS 3 Zrotation Xrotation Yrotation
                JOINT lMid2
                {
                  OFFSET 3.10165 -0.590103 1.0647
                  CHANNELS 3 Zrotation Xrotation Yrotation
                  End Site
                  {
                    OFFSET 2.48547 -0.328903 0.83742
                  }
                }
              }
              JOINT lRing1
              {
                OFFSET 8.82822 0.546677 1.51678
                CHANNELS 3 Zrotation Xrotation Yrotation
                JOINT lRing2
                {
                  OFFSET 2.60934 -0.819778 -0.0198488
                  CHANNELS 3 Zrotation Xrotation Yrotation
                  End Site
                  {
                    OFFSET 2.33842 -0.294052 0.168128
                  }
                }
              }
              JOINT lPinky1
              {
                OFFSET 8.27202 -0.0477905 -0.4584
                CHANNELS 3 Zrotation Xrotation Yrotation
                JOINT lPinky2
                {
                  OFFSET 1.82734 -0.647385 -0.700984
                  CHANNELS 3 Zrotation Xrotation Yrotation
                  End Site
                  {
                    OFFSET 1.69225 -0.51767 -0.607171
                  }
                }
              }
            }
          }
        }
      }
    }
  }
  JOINT rButtock
  {
    OFFSET -8.77824 4.35084 1.2192
    CHANNELS 3 Zrotation Xrotation Yrotation
    JOINT rThigh
    {
      OFFSET 0 -1.70687 -2.19456
      CHANNELS 3 Zrotation Xrotation Yrotation
      JOINT rShin
      {
        OFFSET 0 -36.8199 0.73152
        CHANNELS 3 Zrotation Xrotation Yrotation
        JOINT rFoot
        {
          OFFSET 0.73152 -45.1104 -5.12064
          CHANNELS 3 Zrotation Xrotation Yrotation
          End Site
          {
            OFFSET -1.1221 -3.69964 12.103
          }
        }
      }
    }
  }
  JOINT lButtock
  {
    OFFSET 8.77824 4.35084 1.2192
    CHANNELS 3 Zrotation Xrotation Yrotation
    JOINT lThigh
    {
      OFFSET 0 -1.70687 -2.19456
      CHANNELS 3 Zrotation Xrotation Yrotation
      JOINT lShin
      {
        OFFSET 0 -36.8199 0.73152
        CHANNELS 3 Zrotation Xrotation Yrotation
        JOINT lFoot
        {
          OFFSET -0.73152 -45.1104 -5.12064
          CHANNELS 3 Zrotation Xrotation Yrotation
          End Site
          {
            OFFSET 1.1221 -3.69964 12.103
          }
        }
      }
    }
  }
}
MOTION
Frames:	6
Frame Time:	0.00833333
-52.0215 84.7038 27.6893 3.79033 5.57693 -73.4125 1.1159 -1.02806 17.4119 -2.38027 0.101188 4.85823 -10.3328 0.179823 -8.69141 19.8479 -15.7138 -12 -0 0 0 -0 0 0 -1.72925e-013 -6.66655e-013 -2.03027e-013 41.2767 21.5296 38.4453 -24.8486 -20.772 52.4453 -0.0413086 5.81569 0.820114 2.77866e-009 -3.47331e-009 3.29898e-010 4.80127e-009 -6.01359e-009 5.58762e-010 2.77867e-009 -3.47331e-009 3.29884e-010 7.73091 5.47488 0.417314 2.77866e-009 -3.47331e-009 3.29905e-010 2.90554 0.965183 0.102902 2.77867e-009 -3.47331e-009 3.299e-010 10.2786 0.731801 0.0259123 2.77866e-009 -3.47331e-009 3.29913e-010 2.22167 -0.733487 -0.20892 -1.72969e-013 -6.66644e-013 -2.03254e-013 -81.0884 -11.9403 10.6878 13.9295 -6.89794 -25.4121 1.30514 30.6031 -4.76817 2.62368e-009 1.39297e-009 5.37697e-010 4.54238e-009 2.34731e-009 8.62638e-010 2.62367e-009 1.39297e-009 5.37697e-010 -7.73091 5.47488 -0.417314 2.62368e-009 1.39297e-009 5.37699e-010 -2.90554 0.965183 -0.102902 2.62368e-009 1.39297e-009 5.37697e-010 -10.2786 0.731801 -0.0259123 2.62369e-009 1.39297e-009 5.37685e-010 -2.22167 -0.733487 0.20892 -2.03217e-016 0 -3.88251e-019 -1.64761 -21.7138 -13.4048 -0.861466 54.7914 0.936833 -0.648287 6.0896 -14.3322 2.03217e-016 0 3.88251e-019 0.109373 -27.0472 -10.889 0.0607391 25.0004 0.0771159 0.259785 -0.0220735 -3.01995 
-52.7963 84.7524 27.8434 3.75133 5.34516 -73.4733 0.880606 -1.01017 16.9723 -2.27079 0.0431238 4.73065 -10.2593 0.14629 -8.54565 19.7214 -15.5841 -11.7574 -0 0 0 -0 0 0 -2.09061e-013 -6.94649e-013 -8.43398e-014 42.7205 23.2762 37.0331 -24.8454 -20.7661 52.4261 -0.0530515 6.58725 0.929861 1.98146e-009 -2.96979e-009 -1.85148e-010 3.42105e-009 -5.13747e-009 -3.29621e-010 1.98147e-009 -2.96979e-009 -1.85159e-010 7.73091 5.47488 0.417314 1.98146e-009 -2.96979e-009 -1.85139e-010 2.90554 0.965183 0.102902 1.98147e-009 -2.96979e-009 -1.85144e-010 10.2786 0.731801 0.0259123 1.98146e-009 -2.96979e-009 -1.8513e-010 2.22167 -0.733487 -0.20892 -2.09118e-013 -6.94638e-013 -8.46112e-014 -81.4879 -11.471 10.329 13.6808 -6.70064 -24.9125 1.35542 31.1171 -4.86647 1.79142e-009 1.6052e-009 9.56398e-010 3.11666e-009 2.73269e-009 1.60533e-009 1.79141e-009 1.6052e-009 9.56398e-010 -7.73091 5.47488 -0.417314 1.79142e-009 1.6052e-009 9.56397e-010 -2.90554 0.965183 -0.102902 1.79142e-009 1.6052e-009 9.56395e-010 -10.2786 0.731801 -0.0259123 1.79143e-009 1.6052e-009 9.56381e-010 -2.22167 -0.733487 0.20892 -2.03217e-016 0 -3.88251e-019 -2.39099 -22.3877 -13.6486 -0.887097 55.3219 0.962644 -0.614785 6.29726 -14.7728 2.03217e-016 0 3.88251e-019 -0.0640727 -26.391 -10.84 0.0565604 25.0474 0.0554768 0.244267 -0.485802 -2.90981 
-53.565 84.8012 27.9881 3.7179 5.12879 -73.536 0.663269 -0.99353 16.527 -2.15784 -0.0186229 4.60186 -10.1807 0.111591 -8.39582 19.5849 -15.4571 -11.5085 -0 0 0 -0 0 0 -2.08296e-013 -6.43272e-013 -5.39203e-014 44.2488 24.9303 35.5898 -24.7967 -20.6666 52.2388 -0.0655396 7.28521 1.02948 1.30659e-009 -2.08792e-009 -1.81441e-010 2.25572e-009 -3.61204e-009 -3.20842e-010 1.30659e-009 -2.08792e-009 -1.81451e-010 7.73091 5.47488 0.417314 1.30659e-009 -2.08792e-009 -1.81432e-010 2.90554 0.965183 0.102902 1.3066e-009 -2.08792e-009 -1.81435e-010 10.2786 0.731801 0.0259123 1.30659e-009 -2.08792e-009 -1.81422e-010 2.22167 -0.733487 -0.20892 -2.0837e-013 -6.43263e-013 -5.42185e-014 -81.8849 -10.8868 9.95581 13.4591 -6.52618 -24.472 1.39808 31.5383 -4.94807 1.37469e-009 1.63887e-009 1.33111e-009 2.40604e-009 2.80393e-009 2.26155e-009 1.37469e-009 1.63887e-009 1.33111e-009 -7.73091 5.47488 -0.417314 1.37469e-009 1.63887e-009 1.3311e-009 -2.90554 0.965183 -0.102902 1.3747e-009 1.63887e-009 1.3311e-009 -10.2786 0.731801 -0.0259123 1.3747e-009 1.63887e-009 1.33109e-009 -2.22167 -0.733487 0.20892 -2.03217e-016 0 -3.88251e-019 -3.10861 -23.0424 -13.8755 -0.907015 55.7299 0.984308 -0.595602 6.43546 -15.2184 2.03217e-016 0 3.88251e-019 -0.217469 -25.7357 -10.7935 0.0522134 25.0708 0.032763 0.230595 -0.949059 -2.79439 
-54.3273 84.8506 28.124 3.68969 4.92857 -73.5985 0.465332 -0.978027 16.0743 -2.04219 -0.0847426 4.47133 -10.0964 0.0761209 -8.24153 19.4376 -15.3329 -11.2529 -0 0 0 -0 0 0 -1.47422e-013 -4.53704e-013 -1.78714e-013 45.8566 26.4857 34.1003 -24.6928 -20.4514 51.8804 -0.0777363 7.91217 1.1192 7.2423e-010 -3.13503e-010 7.97249e-010 1.25696e-009 -5.52265e-010 1.37466e-009 7.24231e-010 -3.13506e-010 7.97236e-010 7.73091 5.47488 0.417314 7.24229e-010 -3.13504e-010 7.97254e-010 2.90554 0.965183 0.102902 7.24236e-010 -3.13505e-010 7.97252e-010 10.2786 0.731801 0.0259123 7.24226e-010 -3.13505e-010 7.97264e-010 2.22167 -0.733487 -0.20892 -1.4752e-013 -4.53699e-013 -1.79015e-013 -82.2787 -10.1767 9.56688 13.2649 -6.37535 -24.0883 1.43194 31.8648 -5.01192 1.64448e-009 1.44826e-009 1.81109e-009 2.88097e-009 2.47964e-009 3.08179e-009 1.64447e-009 1.44826e-009 1.81109e-009 -7.73091 5.47488 -0.417314 1.64448e-009 1.44826e-009 1.81108e-009 -2.90554 0.965183 -0.102902 1.64448e-009 1.44826e-009 1.81108e-009 -10.2786 0.731801 -0.0259123 1.64449e-009 1.44826e-009 1.81107e-009 -2.22167 -0.733487 0.20892 -2.03217e-016 0 -3.88251e-019 -3.7998 -23.6805 -14.087 -0.920745 56.0165 1.0014 -0.593913 6.5007 -15.6744 2.03217e-016 0 3.88251e-019 -0.350171 -25.081 -10.7516 0.0475546 25.0708 0.0087975 0.218752 -1.41484 -2.67379 
-55.0843 84.8998 28.2505 3.66627 4.74244 -73.6594 0.285043 -0.962702 15.6133 -1.92313 -0.155106 4.33877 -10.0068 0.0391071 -8.08277 19.2787 -15.2103 -10.9904 -0 0 0 -0 0 0 -4.44782e-014 -1.62557e-013 -3.99032e-013 47.5423 27.9402 32.5481 -24.5331 -20.1247 51.3594 -0.0891146 8.48039 1.20069 1.34038e-010 2.14502e-009 2.42057e-009 2.49187e-010 3.68455e-009 4.18564e-009 1.3404e-010 2.14501e-009 2.42055e-009 7.73091 5.47488 0.417314 1.34039e-010 2.14501e-009 2.42057e-009 2.90554 0.965183 0.102902 1.34045e-010 2.14501e-009 2.42057e-009 10.2786 0.731801 0.0259123 1.34033e-010 2.14501e-009 2.42058e-009 2.22167 -0.733487 -0.20892 -4.46082e-014 -1.62557e-013 -3.99321e-013 -82.667 -9.35017 9.16109 13.0964 -6.24743 -23.7544 1.45744 32.1106 -5.06011 2.29257e-009 1.05686e-009 2.34385e-009 4.00896e-009 1.80466e-009 3.9832e-009 2.29256e-009 1.05687e-009 2.34386e-009 -7.73091 5.47488 -0.417314 2.29257e-009 1.05686e-009 2.34385e-009 -2.90554 0.965183 -0.102902 2.29256e-009 1.05686e-009 2.34385e-009 -10.2786 0.731801 -0.0259123 2.29257e-009 1.05686e-009 2.34384e-009 -2.22167 -0.733487 0.20892 -2.03217e-016 0 -3.88251e-019 -4.46734 -24.3061 -14.2845 -0.92851 56.1889 1.01401 -0.61113 6.49493 -16.1431 2.03217e-016 0 3.88251e-019 -0.462907 -24.4256 -10.7124 0.0425151 25.0476 -0.016439 0.208964 -1.88871 -2.54605 
-55.8351 84.948 28.3678 3.6489 4.56927 -73.7227 0.120389 -0.948594 15.1485 -1.7996 -0.228261 4.2056 -9.91292 0.000231589 -7.92038 19.1106 -15.0902 -10.7221 -0 0 0 -0 0 0 6.18436e-014 1.25286e-013 -6.09015e-013 49.3001 29.2709 30.9466 -24.326 -19.7141 50.6842 -0.0996291 8.97486 1.27182 -3.2165e-010 4.28702e-009 3.90977e-009 -5.27202e-010 7.37505e-009 6.76402e-009 -3.21648e-010 4.28702e-009 3.90975e-009 7.73091 5.47488 0.417314 -3.21648e-010 4.28702e-009 3.90977e-009 2.90554 0.965183 0.102902 -3.21644e-010 4.28702e-009 3.90977e-009 10.2786 0.731801 0.0259123 -3.21656e-010 4.28702e-009 3.90977e-009 2.22167 -0.733487 -0.20892 6.1687e-014 1.25281e-013 -6.09284e-013 -83.0422 -8.42286 8.74625 12.9581 -6.14385 -23.4802 1.47387 32.2695 -5.09128 2.94041e-009 5.49923e-010 2.63293e-009 5.13084e-009 9.2852e-010 4.4643e-009 2.94041e-009 5.49927e-010 2.63294e-009 -7.73091 5.47488 -0.417314 2.94041e-009 5.49924e-010 2.63293e-009 -2.90554 0.965183 -0.102902 2.9404e-009 5.49924e-010 2.63293e-009 -10.2786 0.731801 -0.0259123 2.94041e-009 5.49923e-010 2.63293e-009 -2.22167 -0.733487 0.20892 -2.03217e-016 0 -3.88251e-019 -5.10724 -24.9113 -14.4621 -0.92984 56.2393 1.02178 -0.645444 6.42615 -16.6093 2.03217e-016 0 3.88251e-019 -0.55628 -23.7712 -10.6731 0.0373427 25.0001 -0.0424804 0.201682 -2.35974 -2.41231 
